<?xml version="1.0" encoding="UTF-8" standalone="no"?>
<!-- Created with Inkscape (http://www.inkscape.org/) -->

<svg
   width="199.36212mm"
   height="119.50421mm"
   viewBox="0 0 199.36212 119.50421"
   version="1.1"
   id="svg5"
   xml:space="preserve"
   inkscape:version="1.2.2 (b0a8486541, 2022-12-01)"
   sodipodi:docname="button_layout.svg"
   xmlns:inkscape="http://www.inkscape.org/namespaces/inkscape"
   xmlns:sodipodi="http://sodipodi.sourceforge.net/DTD/sodipodi-0.dtd"
   xmlns="http://www.w3.org/2000/svg"
   xmlns:svg="http://www.w3.org/2000/svg"><sodipodi:namedview
     id="namedview7"
     pagecolor="#ffffff"
     bordercolor="#666666"
     borderopacity="1.0"
     inkscape:showpageshadow="2"
     inkscape:pageopacity="1"
     inkscape:pagecheckerboard="0"
     inkscape:deskcolor="#d1d1d1"
     inkscape:document-units="mm"
     showgrid="false"
     inkscape:zoom="1.0935553"
     inkscape:cx="179.68913"
     inkscape:cy="208.49426"
     inkscape:window-width="2560"
     inkscape:window-height="1365"
     inkscape:window-x="0"
     inkscape:window-y="0"
     inkscape:window-maximized="1"
     inkscape:current-layer="layer1" /><defs
     id="defs2" /><g
     inkscape:label="Ebene 1"
     inkscape:groupmode="layer"
     id="layer1"
     transform="translate(-27.640224,-71.197948)"><path
       id="PS3"
       d="m 167.70253,124.4803 c -5.7522,0.003 -8.6336,-6.95144 -4.56637,-11.01806 4.06724,-4.06663 11.02106,-1.18417 11.01737,4.56804 -0.002,3.56168 -2.88931,6.44828 -6.451,6.45002 m -11.57852,11.5795 c -5.7524,0.006 -8.63667,-6.9481 -4.57061,-11.01617 4.06607,-4.06807 11.02103,-1.18724 11.01843,4.56517 -0.002,3.56088 -2.88694,6.44763 -6.44782,6.451 z m -11.58902,-11.5795 c -5.75073,-0.003 -8.62623,-6.95655 -4.55812,-11.02021 4.06812,-4.06367 11.0189,-1.18055 11.01522,4.57019 -0.002,3.56406 -2.89303,6.45164 -6.4571,6.45002 z m -9.39567,24.28712 c -8.96227,9.2e-4 -13.4501,-10.83341 -7.11389,-17.17023 6.3362,-6.33682 17.17136,-1.85006 17.17093,7.11221 -4.1e-4,5.55434 -4.50269,10.05707 -10.05704,10.05802 z m -12.08675,-27.77636 c -0.069,0.0217 -0.14106,0.032 -0.21338,0.0307 -0.67196,0.005 -1.21907,-0.53907 -1.21932,-1.21105 v -3.13855 c 0,-0.73647 0.69721,-1.38151 1.41052,-1.18811 l 6.52439,1.77265 c 0.32892,0.0888 0.55749,0.38702 0.55772,0.7277 -7.6e-4,0.61752 -0.46235,1.13731 -1.07544,1.21104 z m -19.79608,-1.33663 c 9.3e-4,0.67245 -0.54298,1.21852 -1.21543,1.21932 h -5.300675 c -0.673559,0.002 -1.219518,-0.54576 -1.216403,-1.21932 v -2.52353 c 0,-0.67174 0.544411,-1.21638 1.216154,-1.21665 h 5.300924 c 0.67147,6.7e-4 1.21543,0.54518 1.21543,1.21665 z m -13.137318,29.11299 c -8.962266,9.2e-4 -13.450091,-10.83341 -7.113891,-17.17023 6.336201,-6.33682 17.171369,-1.85005 17.170929,7.11221 -4e-4,5.55434 -4.502692,10.05708 -10.057038,10.05802 z m -10.96325,-24.96995 c -1.41223,0 -4.854645,-0.37995 -5.879615,-0.8906 -0.949615,-0.4753 -2.670579,-2.82885 -3.236105,-3.62166 -0.04077,-0.045 -0.07567,-0.095 -0.103887,-0.14876 -0.06422,-0.12864 -0.08964,-0.2732 -0.07315,-0.41603 0.003,-0.0765 0.02003,-0.15181 0.05023,-0.22216 0.02908,-0.0771 0.07224,-0.148 0.127298,-0.20924 0.572843,-0.8011 2.286491,-3.14709 3.236105,-3.62166 1.024238,-0.51383 4.46763,-0.88353 5.879615,-0.88353 0.162903,0 0.311662,0.007 0.429693,0.0156 2.472803,0.1707 2.472803,3.54679 2.472803,4.98023 0,1.45491 0,4.82416 -2.472803,5.00291 -0.118519,0.007 -0.267765,0.0148 -0.43018,0.0148 z m -5.433584,5.84913 c -0.177778,2.47281 -3.547766,2.47281 -4.988528,2.47281 h -0.0076 c -1.43881,0 -4.816846,0 -4.988527,-2.47281 -0.09535,-1.31541 0.349216,-5.26312 0.868651,-6.31102 0.475052,-0.94985 2.828848,-2.67204 3.630437,-3.23536 0.02479,-0.028 0.05466,-0.051 0.08803,-0.0678 0.146194,-0.0981 0.324111,-0.13723 0.497975,-0.1095 0.09446,0.006 0.186167,0.0347 0.268253,0.0819 0.05124,0.0254 0.09889,0.0574 0.141686,0.0954 0.8011,0.57186 3.145875,2.28551 3.613122,3.23537 0.528459,1.0479 0.971563,4.9956 0.876455,6.31101 z m -15.854232,-5.86401 c -2.465243,-0.17875 -2.465243,-3.54801 -2.473047,-4.98852 0.0078,-1.44783 0.0078,-4.81685 2.4789,-4.99462 0.119739,-0.008 0.26679,-0.0156 0.431399,-0.0156 1.401988,0 4.847574,0.3697 5.879615,0.8906 0.948152,0.46749 2.670336,2.82056 3.234642,3.62166 0.03318,0.0398 0.06311,0.0822 0.0895,0.12681 0.07179,0.1288 0.102984,0.27627 0.0895,0.4231 -0.0095,0.12378 -0.04819,0.24353 -0.11291,0.34947 -0.0178,0.0328 -0.04003,0.063 -0.06609,0.0898 -0.564307,0.80085 -2.286491,3.14587 -3.234643,3.62165 -1.024238,0.51066 -4.477872,0.8906 -5.879615,0.8906 -0.164365,0 -0.31166,-0.007 -0.437252,-0.0148 z m 5.869617,-15.85521 c 0.170706,-2.46573 3.549473,-2.46573 4.979748,-2.47304 1.456857,0.007 4.827089,0.007 5.00316,2.47304 0.08975,1.3203 -0.34629,5.26996 -0.875967,6.31614 -0.475052,0.95108 -2.826897,2.67497 -3.622146,3.23659 -0.06018,0.0513 -0.12714,0.0939 -0.198995,0.12682 -0.09508,0.0353 -0.195842,0.0529 -0.297273,0.0519 h -0.04438 c -0.103886,-0.004 -0.205421,-0.0319 -0.296298,-0.0824 -0.05472,-0.0239 -0.105014,-0.0569 -0.148758,-0.0975 -0.793785,-0.56089 -3.155385,-2.28552 -3.630437,-3.23659 -0.519435,-1.04521 -0.964003,-4.99463 -0.868651,-6.31614 z m 92.386287,-7.934914 c 0.59982,9.21e-4 1.19666,0.08452 1.77364,0.248494 3.26237,0.93209 5.24737,4.22975 4.54427,7.54785 -0.70308,3.31797 -3.85424,5.52421 -7.21403,5.05348 -7.92198,-1.10992 -7.16997,-12.850691 0.89612,-12.849824 z m 23.69965,18.149504 c -0.60747,-4.54469 -2.53035,-12.93833 -10.81473,-18.699418 l -2.02068,-7.777142 c 0,0 -0.20778,-1.922884 -2.7313,-3.333407 0,0 0.14875,-1.314927 -2.17553,-1.922398 -2.3243,-0.60747 -7.72544,-1.769249 -14.04158,0.354094 0,0 -0.96546,0.252646 -0.91353,1.66268 0,0 -2.97662,1.471001 -3.58604,4.1945 -0.60967,2.732764 -1.41882,6.169811 -1.41882,6.169811 H 83.045832 c 0,0 -0.809636,-3.436803 -1.418814,-6.169811 -0.600886,-2.722523 -3.584833,-4.1945 -3.584833,-4.1945 0.05048,-1.410278 -0.913523,-1.66268 -0.913523,-1.66268 -6.316135,-2.123587 -11.721187,-0.964491 -14.043769,-0.355069 -2.322583,0.609422 -2.175531,1.922397 -2.175531,1.922397 -2.522796,1.41101 -2.724961,3.334383 -2.724961,3.334383 l -2.02531,7.776893 C 47.876419,105.2034 45.95329,113.59728 45.345819,118.14173 c -0.603569,4.54956 -4.544447,34.46391 -4.847573,37.99582 -0.304589,3.53996 -0.506755,16.77555 11.622909,18.69795 12.128687,1.91484 18.491157,-9.09962 18.491157,-9.09962 l 8.186589,-14.19302 c 18.289969,14.19302 26.982089,-5.10607 26.982089,-5.10607 h 13.60457 c 0,0 8.69334,19.2986 26.98355,5.10607 l 8.1866,14.19302 c 0,0 6.36856,11.0152 18.49871,9.09962 12.12015,-1.9224 11.92018,-15.16263 11.61584,-18.69795 -0.30361,-3.53923 -4.24547,-33.44626 -4.84733,-37.99582 z"
       fill="none"
       stroke="#999999"
       stroke-miterlimit="10"
       stroke-width="1.21933"
       fill-rule="evenodd"
       sodipodi:nodetypes="csscsssssssscscccccscccccccccsccsccsccccccccccscscccsssccccccccsscccscccccccscccccccccccccccccsscccccsccccccccscccccccccccccccc" /><path
       style="fill:none;stroke:#000000;stroke-width:0.921699;stroke-linecap:round;stroke-linejoin:miter;stroke-opacity:1"
       d="M 99.52246,118.4758 91.974837,79.486362"
       id="path1372"
       sodipodi:nodetypes="cc" /><path
       style="fill:none;stroke:#000000;stroke-width:0.921699;stroke-linecap:round;stroke-linejoin:miter;stroke-opacity:1"
       d="M 60.502377,111.2159 37.710434,103.24877"
       id="path1372-3"
       sodipodi:nodetypes="cc" /><path
       style="fill:none;stroke:#000000;stroke-width:0.921699;stroke-linecap:round;stroke-linejoin:miter;stroke-opacity:1"
       d="M 101.08894,184.58391 89.670159,137.36825"
       id="path1372-1"
       sodipodi:nodetypes="cc" /><path
       style="fill:none;stroke:#000000;stroke-width:0.921699;stroke-linecap:round;stroke-linejoin:miter;stroke-opacity:1"
       d="M 156.38215,106.58202 176.88146,88.448019 H 188.5503"
       id="path1374" /><path
       style="fill:none;stroke:#000000;stroke-width:0.921699;stroke-linecap:round;stroke-linejoin:miter;stroke-opacity:1"
       d="m 156.06678,129.60433 10.66459,18.47161 h 22.76505"
       id="path1397" /><path
       style="fill:none;stroke:#000000;stroke-width:0.921699;stroke-linecap:round;stroke-linejoin:miter;stroke-opacity:1"
       d="M 143.99423,117.26747 134.58691,89.308395"
       id="path1420"
       sodipodi:nodetypes="cc" /><text
       xml:space="preserve"
       style="font-style:normal;font-weight:normal;font-size:5.20248px;line-height:1.25;font-family:sans-serif;letter-spacing:0px;word-spacing:0px;fill:#000000;fill-opacity:1;stroke:none;stroke-width:0.243866"
       x="45.151352"
       y="75.151833"
       id="text1424"><tspan
         sodipodi:role="line"
         id="tspan1422"
         style="font-size:5.20248px;stroke-width:0.243866"
         x="45.151352"
         y="75.151833">Hold to swap controller ports</tspan></text><text
       xml:space="preserve"
       style="font-style:normal;font-weight:normal;font-size:5.20248px;line-height:1.25;font-family:sans-serif;letter-spacing:0px;word-spacing:0px;fill:#000000;fill-opacity:1;stroke:none;stroke-width:0.243866"
       x="82.59227"
       y="190.65013"
       id="text1424-2"><tspan
         sodipodi:role="line"
         id="tspan1422-7"
         style="font-size:5.20248px;stroke-width:0.243866"
         x="82.59227"
         y="190.65013">Converted to D-Pad</tspan></text><text
       xml:space="preserve"
       style="font-style:normal;font-weight:normal;font-size:5.20248px;line-height:1.25;font-family:sans-serif;letter-spacing:0px;word-spacing:0px;fill:#000000;fill-opacity:1;stroke:none;stroke-width:0.243866"
       x="27.135584"
       y="100.70915"
       id="text1424-2-0"><tspan
         sodipodi:role="line"
         id="tspan1422-7-9"
         style="font-size:5.20248px;stroke-width:0.243866"
         x="27.135584"
         y="100.70915">D-Pad</tspan></text><text
       xml:space="preserve"
       style="font-style:normal;font-weight:normal;font-size:5.20248px;line-height:1.25;font-family:sans-serif;letter-spacing:0px;word-spacing:0px;fill:#000000;fill-opacity:1;stroke:none;stroke-width:0.243866"
       x="126.63869"
       y="83.895027"
       id="text1424-5"><tspan
         sodipodi:role="line"
         id="tspan1422-3"
         style="font-size:5.20248px;stroke-width:0.243866"
         x="126.63869"
         y="83.895027">Fire</tspan></text><text
       xml:space="preserve"
       style="font-style:normal;font-weight:normal;font-size:5.20248px;line-height:1.25;font-family:sans-serif;letter-spacing:0px;word-spacing:0px;fill:#000000;fill-opacity:1;stroke:none;stroke-width:0.243866"
       x="191.32376"
       y="90.391167"
       id="text1424-5-5"><tspan
         sodipodi:role="line"
         id="tspan1422-3-6"
         style="font-size:5.20248px;stroke-width:0.243866"
         x="191.32376"
         y="90.391167">Secondary Fire</tspan></text><text
       xml:space="preserve"
       style="font-style:normal;font-weight:normal;font-size:5.20248px;line-height:1.25;font-family:sans-serif;letter-spacing:0px;word-spacing:0px;fill:#000000;fill-opacity:1;stroke:none;stroke-width:0.243866"
       x="193.81523"
       y="148.94853"
       id="text1424-5-5-2"><tspan
         sodipodi:role="line"
         id="tspan1422-3-6-9"
         style="font-size:5.20248px;stroke-width:0.243866"
         x="193.81523"
         y="148.94853">Auto Fire</tspan></text></g></svg>
